D:\school\WTK\thesis\model\3dpredictsim\Results\batch_windlass\Pog_s1_tmt_bCst_d05_k800_WL30_ig24_pas_GRF.mot
nRows=22
nColumns=19

name D:\school\WTK\thesis\model\3dpredictsim\Results\batch_windlass\Pog_s1_tmt_bCst_d05_k800_WL30_ig24_pas_GRF.mot
datacolumns 19
datarows 22
range 0.0000000000 0.2286683018
endheader
time 	ground_force_vx	ground_force_vy	ground_force_vz	ground_force_px	ground_force_py	ground_force_pz	1_ground_force_vx	1_ground_force_vy	1_ground_force_vz	1_ground_force_px	1_ground_force_py	1_ground_force_pz	ground_torque_x	ground_torque_y	ground_torque_z	1_ground_torque_x	1_ground_torque_y	1_ground_torque_z
        0.0000000000	      -76.0151198736	       54.7983468253	       18.4035077764	        0.1369705126	        0.0000000000	        0.0449381179	       87.1066088452	      426.0853764928	       -0.3718611054	       -0.3291442201	        0.0000000000	       -0.0330626656	        0.0000000000	        0.0000000000	        0.0000000000	        0.0000000000	        0.0000000000	        0.0000000000	
        0.0108889668	     -129.7734701463	      115.6155977380	       40.0380385418	        0.1487254071	        0.0000000000	        0.0429211624	       60.7577032967	      329.6801125784	       -7.4322793527	       -0.3228221012	        0.0000000000	       -0.0304229425	        0.0000000000	        0.0000000000	        0.0000000000	        0.0000000000	        0.0000000000	        0.0000000000	
        0.0217779335	     -117.1466159806	      247.5739761542	       56.5905996020	        0.1603595057	        0.0000000000	        0.0427841008	       31.2100159631	      229.8498465751	      -14.7293971198	       -0.3125094487	        0.0000000000	       -0.0254565233	        0.0000000000	        0.0000000000	        0.0000000000	        0.0000000000	        0.0000000000	        0.0000000000	
        0.0326669003	      -73.1621199872	      520.5861727789	        6.5221351582	        0.1719377623	        0.0000000000	        0.0442861591	       11.4349522908	      160.8524443902	      -16.4727096940	       -0.3009631900	        0.0000000000	       -0.0187894587	        0.0000000000	        0.0000000000	        0.0000000000	        0.0000000000	        0.0000000000	        0.0000000000	
        0.0435558670	      -84.7604557809	      753.1122718948	      -12.7577183682	        0.1786596775	        0.0000000000	        0.0455538696	        1.6995971647	      129.1573517996	      -13.2957845168	       -0.3015181668	        0.0000000000	       -0.0188538311	        0.0000000000	        0.0000000000	        0.0000000000	        0.0000000000	        0.0000000000	        0.0000000000	
        0.0544448338	     -109.7702170744	      885.2970273055	      -19.1936260374	        0.1851157774	        0.0000000000	        0.0460495155	       -4.3585062512	       86.5393735904	      -10.1098817422	       -0.3014010452	        0.0000000000	       -0.0187207946	        0.0000000000	        0.0000000000	        0.0000000000	        0.0000000000	        0.0000000000	        0.0000000000	
        0.0653338005	     -128.7923239149	      948.9904470538	      -18.2030050326	        0.1921443654	        0.0000000000	        0.0458733305	      -12.2339192729	       35.4586232824	       -5.3876095819	       -0.3025093534	        0.0000000000	       -0.0186370943	        0.0000000000	        0.0000000000	        0.0000000000	        0.0000000000	        0.0000000000	        0.0000000000	
        0.0762227673	     -126.1073753362	      950.8912179290	      -17.1864260146	        0.1989202512	        0.0000000000	        0.0452700560	        0.1208371912	       -0.1213740715	        0.0026685589	        0.0000000000	        0.0000000000	        0.0000000000	        0.0000000000	        0.0000000000	        0.0000000000	        0.0000000000	        0.0000000000	        0.0000000000	
        0.0871117340	     -110.0164626812	      896.4110534835	      -16.2051297278	        0.2031274648	        0.0000000000	        0.0447772976	        0.0002262719	       -0.0001892601	       -0.0000086032	        0.0000000000	        0.0000000000	        0.0000000000	        0.0000000000	        0.0000000000	        0.0000000000	        0.0000000000	        0.0000000000	        0.0000000000	
        0.0980007008	      -92.0748474210	      827.0856921639	      -16.3374565305	        0.2064272140	        0.0000000000	        0.0444466859	        0.0000445511	       -0.0000324787	       -0.0000024191	        0.0000000000	        0.0000000000	        0.0000000000	        0.0000000000	        0.0000000000	        0.0000000000	        0.0000000000	        0.0000000000	        0.0000000000	
        0.1088896675	      -77.3388576617	      766.1307309945	      -16.4221993185	        0.2094835712	        0.0000000000	        0.0442458737	        0.0001599987	       -0.0001047912	       -0.0000101093	        0.0000000000	        0.0000000000	        0.0000000000	        0.0000000000	        0.0000000000	        0.0000000000	        0.0000000000	        0.0000000000	        0.0000000000	
        0.1197786343	      -64.6372821137	      718.0757602136	      -16.8104839351	        0.2124840231	        0.0000000000	        0.0441364485	        0.0032780119	       -0.0019712481	       -0.0002276899	        0.0000000000	        0.0000000000	        0.0000000000	        0.0000000000	        0.0000000000	        0.0000000000	        0.0000000000	        0.0000000000	        0.0000000000	
        0.1306676010	      -53.5330640830	      680.0335694842	      -17.8632802166	        0.2156811684	        0.0000000000	        0.0440842564	       -0.0207027926	        0.0116111589	        0.0015479536	        0.0000000000	        0.0000000000	        0.0000000000	        0.0000000000	        0.0000000000	        0.0000000000	        0.0000000000	        0.0000000000	        0.0000000000	
        0.1415565678	      -44.0585572872	      649.3981424980	      -18.6009797252	        0.2191275092	        0.0000000000	        0.0440765047	       -0.0240688420	        0.0127369125	        0.0019172564	        0.0000000000	        0.0000000000	        0.0000000000	        0.0000000000	        0.0000000000	        0.0000000000	        0.0000000000	        0.0000000000	        0.0000000000	
        0.1524455345	      -35.6765281309	      625.5993713030	      -19.6384696564	        0.2232475462	        0.0000000000	        0.0440678399	       -0.0149996805	        0.0075491575	        0.0012614149	        0.0000000000	        0.0000000000	        0.0000000000	        0.0000000000	        0.0000000000	        0.0000000000	        0.0000000000	        0.0000000000	        0.0000000000	
        0.1633345013	      -29.8220401191	      608.0160784028	      -20.6319050033	        0.2280933410	        0.0000000000	        0.0440196982	       -0.0107846000	        0.0051955496	        0.0009530297	        0.0000000000	        0.0000000000	        0.0000000000	        0.0000000000	        0.0000000000	        0.0000000000	        0.0000000000	        0.0000000000	        0.0000000000	
        0.1742234681	      -25.7404468522	      595.8429403887	      -21.0628186159	        0.2332396324	        0.0000000000	        0.0439345864	       -0.0099970460	        0.0046343505	        0.0009206028	        0.0000000000	        0.0000000000	        0.0000000000	        0.0000000000	        0.0000000000	        0.0000000000	        0.0000000000	        0.0000000000	        0.0000000000	
        0.1851124348	      -22.0660646996	      588.0300558637	      -21.2428936161	        0.2387242675	        0.0000000000	        0.0438041197	       -0.0120956803	        0.0054182053	        0.0011471870	        0.0000000000	        0.0000000000	        0.0000000000	        0.0000000000	        0.0000000000	        0.0000000000	        0.0000000000	        0.0000000000	        0.0000000000	
        0.1960014016	      -20.1977743377	      583.4984566808	      -21.1043603147	        0.2443838645	        0.0000000000	        0.0436248572	       -0.0183862665	        0.0079880262	        0.0017750137	        0.0000000000	        0.0000000000	        0.0000000000	        0.0000000000	        0.0000000000	        0.0000000000	        0.0000000000	        0.0000000000	        0.0000000000	
        0.2068903683	      -19.0510664111	      581.3836137099	      -20.4904892764	        0.2499251286	        0.0000000000	        0.0434235764	       -0.0329750368	        0.0139449940	        0.0032139964	        0.0000000000	        0.0000000000	        0.0000000000	        0.0000000000	        0.0000000000	        0.0000000000	        0.0000000000	        0.0000000000	        0.0000000000	
        0.2177793351	      -17.4238059738	      580.6865211111	      -19.7893333535	        0.2554776265	        0.0000000000	        0.0431949859	       -0.0647384709	        0.0267421179	        0.0063055215	        0.0000000000	        0.0000000000	        0.0000000000	        0.0000000000	        0.0000000000	        0.0000000000	        0.0000000000	        0.0000000000	        0.0000000000	
        0.2286683018	      -15.7497278228	      580.1036044073	      -19.1000004479	        0.2609621347	        0.0000000000	        0.0429411082	       -0.1292818152	        0.0523414313	        0.0124769064	        0.0000000000	        0.0000000000	        0.0000000000	        0.0000000000	        0.0000000000	        0.0000000000	        0.0000000000	        0.0000000000	        0.0000000000	
